<?xml version="1.0" encoding="utf-8"?>
<!-- Generator: Adobe Illustrator 15.1.0, SVG Export Plug-In . SVG Version: 6.00 Build 0)  -->
<!DOCTYPE svg PUBLIC "-//W3C//DTD SVG 1.1//EN" "http://www.w3.org/Graphics/SVG/1.1/DTD/svg11.dtd">
<svg version="1.1" id="Layer_1" xmlns="http://www.w3.org/2000/svg" xmlns:xlink="http://www.w3.org/1999/xlink" x="0px" y="0px"
	 width="41.388px" height="21.873px" viewBox="0 0 41.388 21.873" enable-background="new 0 0 41.388 21.873" xml:space="preserve">
<path fill-rule="evenodd" clip-rule="evenodd" d="M41.388,10.94c0.007,6.015-4.915,10.934-10.94,10.932
	c-6.029-0.001-10.934-4.908-10.933-10.938C19.516,4.91,24.436-0.01,30.452,0C36.486,0.01,41.38,4.906,41.388,10.94z"/>
<path fill-rule="evenodd" clip-rule="evenodd" d="M6.954,3.369c4.309-0.011,7.355-0.002,11.665-0.002l0.009,2.047
	c-3.897-0.018-8.17-0.063-12.027-0.046C3.528,5.38,2.308,7.945,2.244,10.974c-0.066,3.149,1.315,4.89,4.356,5.322
	c0.929,0.133,10.25,0.1,12.076,0.099l0.01,2.178c-4.589-0.001-7.679,0.041-12.266-0.064c-4.518,0-6.31-3.463-6.416-7.286
	C-0.116,6.871,2.417,3.369,6.954,3.369z"/>
</svg>
