<?xml version="1.0" encoding="utf-8"?>
<!-- Generator: Adobe Illustrator 15.1.0, SVG Export Plug-In . SVG Version: 6.00 Build 0)  -->
<!DOCTYPE svg PUBLIC "-//W3C//DTD SVG 1.1//EN" "http://www.w3.org/Graphics/SVG/1.1/DTD/svg11.dtd">
<svg version="1.1" id="Layer_1" xmlns="http://www.w3.org/2000/svg" xmlns:xlink="http://www.w3.org/1999/xlink" x="0px" y="0px"
	 width="1366px" height="768px" viewBox="0 0 1366 768" enable-background="new 0 0 1366 768" xml:space="preserve">
<path fill-rule="evenodd" clip-rule="evenodd" d="M652.188,260.849c6.016-0.01,10.937,4.91,10.938,10.935
	c0.001,6.029-4.903,10.937-10.933,10.938c-6.026,0.002-10.948-4.917-10.94-10.932C641.26,265.755,646.154,260.859,652.188,260.849z"
	/>
<path fill-rule="evenodd" clip-rule="evenodd" d="M675.687,264.218c-4.309-0.011-7.355-0.002-11.665-0.002l-0.009,2.047
	c3.897-0.018,8.17-0.063,12.027-0.046c3.073,0.013,4.293,2.578,4.356,5.607c0.066,3.149-1.315,4.89-4.356,5.322
	c-0.929,0.133-10.25,0.1-12.076,0.099l-0.01,2.178c4.589-0.001,7.679,0.041,12.266-0.064c4.518,0,6.31-3.463,6.416-7.286
	C682.756,267.72,680.223,264.218,675.687,264.218z"/>
</svg>
