<?xml version="1.0" encoding="utf-8"?>
<!-- Generator: Adobe Illustrator 15.1.0, SVG Export Plug-In . SVG Version: 6.00 Build 0)  -->
<!DOCTYPE svg PUBLIC "-//W3C//DTD SVG 1.1//EN" "http://www.w3.org/Graphics/SVG/1.1/DTD/svg11.dtd">
<svg version="1.1" id="Layer_1" xmlns="http://www.w3.org/2000/svg" xmlns:xlink="http://www.w3.org/1999/xlink" x="0px" y="0px"
	 width="39.546px" height="46.902px" viewBox="0 0 39.546 46.902" enable-background="new 0 0 39.546 46.902" xml:space="preserve">
<g>
	<clipPath id="SVGID_2_">
		<rect id="SVGID_1_" width="39.546" height="46.902"/>
	</clipPath>
	<path clip-path="url(#SVGID_2_)" fill="inherit" d="M7.923,21.61l11.279,11.28c0.316,0.314,0.826,0.314,1.14,0l11.279-11.28
		c0.314-0.314,0.314-0.825,0-1.14s-0.849-0.315-1.163,0l-9.929,9.905V1.306c0-0.445-0.312-0.806-0.755-0.806
		c-0.445,0-0.755,0.361-0.755,0.806v29.069L9.088,20.47c-0.157-0.157-0.377-0.236-0.582-0.236c-0.207,0-0.42,0.079-0.577,0.236
		C7.614,20.785,7.609,21.296,7.923,21.61"/>
	<path clip-path="url(#SVGID_2_)" fill="inherit" stroke="inherit" stroke-miterlimit="10" d="M7.923,21.61l11.279,11.28
		c0.316,0.314,0.826,0.314,1.14,0l11.279-11.28c0.314-0.314,0.314-0.825,0-1.14s-0.849-0.315-1.163,0l-9.929,9.905V1.306
		c0-0.445-0.312-0.806-0.755-0.806c-0.445,0-0.755,0.361-0.755,0.806v29.069L9.088,20.47c-0.157-0.157-0.377-0.236-0.582-0.236
		c-0.207,0-0.42,0.079-0.577,0.236C7.614,20.785,7.609,21.296,7.923,21.61z"/>
	<path clip-path="url(#SVGID_2_)" fill="inherit" d="M24.229,46.4H1.375c-0.483,0-0.874-0.566-0.874-1.378s0.391-1.38,0.874-1.38
		h22.855l-8.913,0.002h22.855c0.482,0,0.874,0.566,0.874,1.378s-0.392,1.38-0.874,1.38H15.316"/>
	<path clip-path="url(#SVGID_2_)" fill="inherit" stroke="inherit" stroke-miterlimit="10" d="M24.229,46.4H1.375
		c-0.483,0-0.874-0.566-0.874-1.378s0.391-1.38,0.874-1.38h22.855l-8.913,0.002h22.855c0.482,0,0.874,0.566,0.874,1.378
		s-0.392,1.38-0.874,1.38H15.316"/>
</g>
</svg>
