<?xml version="1.0" encoding="utf-8"?>
<!-- Generator: Adobe Illustrator 15.1.0, SVG Export Plug-In . SVG Version: 6.00 Build 0)  -->
<!DOCTYPE svg PUBLIC "-//W3C//DTD SVG 1.1//EN" "http://www.w3.org/Graphics/SVG/1.1/DTD/svg11.dtd">
<svg version="1.1" id="Layer_1" xmlns="http://www.w3.org/2000/svg" xmlns:xlink="http://www.w3.org/1999/xlink" x="0px" y="0px"
	 width="29.978px" height="29.978px" viewBox="0 0 29.978 29.978" enable-background="new 0 0 29.978 29.978" xml:space="preserve">
<path fill-rule="evenodd" clip-rule="evenodd" d="M14.989,0C6.711,0,0,6.711,0,14.989s6.711,14.989,14.989,14.989
	c8.277,0,14.988-6.711,14.988-14.989S23.267,0,14.989,0z M17.36,23.82h-4.981v-8.896h4.981V23.82z M17.084,10.92
	c-0.583,0.541-1.291,0.812-2.124,0.812c-0.814,0-1.508-0.262-2.081-0.785c-0.574-0.523-0.86-1.186-0.86-1.989
	c0-0.802,0.286-1.47,0.86-2.002c0.573-0.532,1.267-0.798,2.081-0.798c0.833,0,1.541,0.267,2.124,0.798
	c0.583,0.532,0.874,1.2,0.874,2.002C17.958,9.726,17.667,10.38,17.084,10.92z"/>
</svg>
