<?xml version="1.0" encoding="utf-8"?>
<svg xmlns="http://www.w3.org/2000/svg"
	xmlns:xlink="http://www.w3.org/1999/xlink"
	width="22px" height="24px" viewBox="0 0 22 24">
<path fillRule="evenodd" d="M 13.66 21.98C 13.5 22.37 13.27 22.73 12.97 23.04 12.36 23.65 11.57 24 10.72 24 9.46 24.02 8.3 23.2 7.83 22.07 4.95 21.56 1.95 20.37 0.71 19.12 0.24 18.65 0.01 18.16 0.01 17.65 0.02 17.35 0.16 17.07 0.41 16.9 0.55 16.8 3.85 14.34 3.9 7.4 3.92 4.23 7.05 0.53 11.03 0.5 12.78 0.49 14.48 1.22 15.81 2.56 17.14 3.9 17.92 5.71 17.91 7.41 17.86 13.1 21 16.43 21.36 16.79 21.53 16.96 21.67 17.24 21.66 17.48 21.65 19.49 17.34 21.25 13.66 21.98ZM 16.09 7.42C 16.1 6.2 15.51 4.87 14.52 3.87 13.53 2.87 12.29 2.32 11.02 2.33 8.1 2.36 5.73 5.11 5.71 7.38 5.66 13.56 3.23 16.7 2.05 17.86 3.3 19.06 7.55 20.52 10.65 20.5 14.24 20.47 18.69 18.68 19.68 17.67 18.58 16.38 16.05 12.81 16.09 7.42Z" fill="inherit"/></svg>