<?xml version="1.0" encoding="utf-8"?>
<!-- Generator: Adobe Illustrator 15.1.0, SVG Export Plug-In . SVG Version: 6.00 Build 0)  -->
<!DOCTYPE svg PUBLIC "-//W3C//DTD SVG 1.1//EN" "http://www.w3.org/Graphics/SVG/1.1/DTD/svg11.dtd">
<svg version="1.1" id="Layer_1" xmlns="http://www.w3.org/2000/svg" xmlns:xlink="http://www.w3.org/1999/xlink" x="0px" y="0px"
	 width="595.779px" height="595.781px" viewBox="0 0 595.779 595.781" enable-background="new 0 0 595.779 595.781"
	 xml:space="preserve">
<g fill="inherit" stroke="inherit">
	<defs>
		<rect id="SVGID_1_" width="595.779" height="595.781"/>
	</defs>
	<clipPath id="SVGID_2_">
		<use xlink:href="#SVGID_1_"  overflow="visible"/>
	</clipPath>
	<path clip-path="url(#SVGID_2_)" d="M564.884,231.748h-55.691c-8.951,0-16.326-4.927-19.755-13.195s-1.687-16.977,4.63-23.304
		l39.377-39.366c5.787-5.787,8.974-13.493,8.974-21.672c0-8.191-3.187-15.886-8.974-21.684l-50.19-50.191
		c-11.575-11.575-31.76-11.597-43.356,0l-39.366,39.365c-6.327,6.317-15.059,8.081-23.304,4.642
		c-8.269-3.429-13.195-10.804-13.195-19.755V30.896c0-16.899-13.747-30.646-30.646-30.646h-70.992
		c-16.899,0-30.645,13.747-30.645,30.646v55.692c0,8.951-4.928,16.326-13.197,19.755c-8.245,3.45-16.975,1.675-23.303-4.642
		l-39.366-39.365c-11.597-11.597-31.781-11.575-43.356,0l-50.191,50.191c-5.788,5.787-8.973,13.493-8.973,21.684
		c0,8.179,3.185,15.874,8.973,21.672l39.376,39.366c6.317,6.327,8.047,15.036,4.63,23.304s-10.802,13.195-19.754,13.195H30.896
		c-16.899,0-30.645,13.747-30.645,30.646v70.983c0,16.91,13.746,30.656,30.645,30.656h55.692c8.952,0,16.326,4.928,19.754,13.195
		c3.429,8.268,1.687,16.977-4.63,23.305l-39.376,39.365c-5.788,5.787-8.973,13.492-8.973,21.672c0,8.191,3.185,15.885,8.973,21.684
		l50.191,50.191c11.586,11.587,31.759,11.607,43.356,0l39.366-39.377c6.328-6.316,15.025-8.059,23.303-4.629
		c8.269,3.428,13.197,10.803,13.197,19.754v55.691c0,16.9,13.746,30.646,30.645,30.646h70.981c16.899,0,30.646-13.746,30.646-30.646
		v-55.691c0-8.951,4.928-16.326,13.195-19.754c8.279-3.439,16.977-1.688,23.305,4.629l39.365,39.377
		c11.598,11.598,31.781,11.574,43.356,0l50.191-50.191c5.787-5.787,8.973-13.492,8.973-21.684c0-8.18-3.186-15.873-8.973-21.672
		l-39.377-39.365c-6.316-6.328-8.048-15.037-4.63-23.305c3.417-8.268,10.814-13.195,19.766-13.195h55.691
		c16.899,0,30.646-13.746,30.646-30.646v-70.993C595.529,245.495,581.783,231.748,564.884,231.748 M573.482,333.387
		c0,4.74-3.858,8.6-8.599,8.6h-55.691c-17.903,0-33.281,10.273-40.127,26.809c-6.856,16.535-3.252,34.682,9.415,47.336
		l39.376,39.365c3.362,3.363,3.362,8.82,0,12.17l-50.19,50.191c-3.352,3.352-8.809,3.373-12.171,0L416.13,478.48
		c-12.666-12.666-30.8-16.248-47.336-9.414c-16.535,6.846-26.81,22.225-26.81,40.127v55.691c0,4.74-3.858,8.6-8.599,8.6h-70.992
		c-4.74,0-8.598-3.859-8.598-8.6v-55.691c0-17.902-10.275-33.281-26.81-40.127c-5.545-2.303-11.255-3.428-16.899-3.428
		c-11.178,0-22.015,4.41-30.437,12.832l-39.365,39.377c-3.373,3.373-8.83,3.35-12.171,0l-50.191-50.19
		c-3.362-3.364-3.362-8.819,0-12.171l39.377-39.365c12.656-12.656,16.271-30.801,9.414-47.336
		c-6.845-16.525-22.223-26.799-40.126-26.799H30.896c-4.74,0-8.599-3.859-8.599-8.6v-70.993c0-4.74,3.859-8.598,8.599-8.598h55.692
		c17.903,0,33.281-10.274,40.126-26.81c6.857-16.536,3.252-34.681-9.414-47.336l-39.377-39.366c-3.362-3.361-3.362-8.818,0-12.169
		l50.191-50.191c3.351-3.363,8.808-3.363,12.171,0l39.365,39.365c12.645,12.644,30.778,16.271,47.336,9.414
		c16.535-6.834,26.81-22.212,26.81-40.115V30.896c0-4.74,3.858-8.598,8.598-8.598h70.981c4.751,0,8.609,3.858,8.609,8.598v55.692
		c0,17.903,10.274,33.281,26.81,40.127c16.558,6.856,34.681,3.24,47.336-9.415l39.365-39.365c3.374-3.362,8.83-3.362,12.171,0
		l50.19,50.19c3.362,3.363,3.362,8.82,0,12.171l-39.376,39.365c-12.655,12.656-16.271,30.801-9.415,47.336
		c6.846,16.536,22.224,26.81,40.127,26.81h55.691c4.74-0.011,8.599,3.847,8.599,8.587V333.387z"/>
	<path clip-path="url(#SVGID_2_)" fill="inherit" stroke="inherit" stroke-width="0.5" stroke-miterlimit="10" d="M564.884,231.748
		h-55.691c-8.951,0-16.326-4.927-19.755-13.195s-1.687-16.977,4.63-23.304l39.377-39.366c5.787-5.787,8.974-13.493,8.974-21.672
		c0-8.191-3.187-15.886-8.974-21.684l-50.19-50.191c-11.575-11.575-31.76-11.597-43.356,0l-39.366,39.365
		c-6.327,6.317-15.059,8.081-23.304,4.642c-8.269-3.429-13.195-10.804-13.195-19.755V30.896c0-16.899-13.747-30.646-30.646-30.646
		h-70.992c-16.899,0-30.645,13.747-30.645,30.646v55.692c0,8.951-4.928,16.326-13.197,19.755c-8.245,3.45-16.975,1.675-23.303-4.642
		l-39.366-39.365c-11.597-11.597-31.781-11.575-43.356,0l-50.191,50.191c-5.788,5.787-8.973,13.493-8.973,21.684
		c0,8.179,3.185,15.874,8.973,21.672l39.376,39.366c6.317,6.327,8.047,15.036,4.63,23.304s-10.802,13.195-19.754,13.195H30.896
		c-16.899,0-30.645,13.747-30.645,30.646v70.983c0,16.91,13.746,30.656,30.645,30.656h55.692c8.952,0,16.326,4.928,19.754,13.195
		c3.429,8.268,1.687,16.977-4.63,23.305l-39.376,39.365c-5.788,5.787-8.973,13.492-8.973,21.672c0,8.191,3.185,15.885,8.973,21.684
		l50.191,50.191c11.586,11.587,31.759,11.607,43.356,0l39.366-39.377c6.328-6.316,15.025-8.059,23.303-4.629
		c8.269,3.428,13.197,10.803,13.197,19.754v55.691c0,16.9,13.746,30.646,30.645,30.646h70.981c16.899,0,30.646-13.746,30.646-30.646
		v-55.691c0-8.951,4.928-16.326,13.195-19.754c8.279-3.439,16.977-1.688,23.305,4.629l39.365,39.377
		c11.598,11.598,31.781,11.574,43.356,0l50.191-50.191c5.787-5.787,8.973-13.492,8.973-21.684c0-8.18-3.186-15.873-8.973-21.672
		l-39.377-39.365c-6.316-6.328-8.048-15.037-4.63-23.305c3.417-8.268,10.814-13.195,19.766-13.195h55.691
		c16.899,0,30.646-13.746,30.646-30.646v-70.993C595.529,245.495,581.783,231.748,564.884,231.748z M573.482,333.387
		c0,4.74-3.858,8.6-8.599,8.6h-55.691c-17.903,0-33.281,10.273-40.127,26.809c-6.856,16.535-3.252,34.682,9.415,47.336
		l39.376,39.365c3.362,3.363,3.362,8.82,0,12.17l-50.19,50.191c-3.352,3.352-8.809,3.373-12.171,0L416.13,478.48
		c-12.666-12.666-30.8-16.248-47.336-9.414c-16.535,6.846-26.81,22.225-26.81,40.127v55.691c0,4.74-3.858,8.6-8.599,8.6h-70.992
		c-4.74,0-8.598-3.859-8.598-8.6v-55.691c0-17.902-10.275-33.281-26.81-40.127c-5.545-2.303-11.255-3.428-16.899-3.428
		c-11.178,0-22.015,4.41-30.437,12.832l-39.365,39.377c-3.373,3.373-8.83,3.35-12.171,0l-50.191-50.19
		c-3.362-3.364-3.362-8.819,0-12.171l39.377-39.365c12.656-12.656,16.271-30.801,9.414-47.336
		c-6.845-16.525-22.223-26.799-40.126-26.799H30.896c-4.74,0-8.599-3.859-8.599-8.6v-70.993c0-4.74,3.859-8.598,8.599-8.598h55.692
		c17.903,0,33.281-10.274,40.126-26.81c6.857-16.536,3.252-34.681-9.414-47.336l-39.377-39.366c-3.362-3.361-3.362-8.818,0-12.169
		l50.191-50.191c3.351-3.363,8.808-3.363,12.171,0l39.365,39.365c12.645,12.644,30.778,16.271,47.336,9.414
		c16.535-6.834,26.81-22.212,26.81-40.115V30.896c0-4.74,3.858-8.598,8.598-8.598h70.981c4.751,0,8.609,3.858,8.609,8.598v55.692
		c0,17.903,10.274,33.281,26.81,40.127c16.558,6.856,34.681,3.24,47.336-9.415l39.365-39.365c3.374-3.362,8.83-3.362,12.171,0
		l50.19,50.19c3.362,3.363,3.362,8.82,0,12.171l-39.376,39.365c-12.655,12.656-16.271,30.801-9.415,47.336
		c6.846,16.536,22.224,26.81,40.127,26.81h55.691c4.74-0.011,8.599,3.847,8.599,8.587V333.387z"/>
	<path clip-path="url(#SVGID_2_)" d="M297.89,198.677c-54.71,0-99.213,44.503-99.213,99.214s44.503,99.213,99.213,99.213
		c54.711,0,99.214-44.502,99.214-99.213S352.601,198.677,297.89,198.677 M297.89,375.057c-42.54,0-77.166-34.625-77.166-77.166
		s34.626-77.166,77.166-77.166s77.166,34.625,77.166,77.166S340.43,375.057,297.89,375.057"/>
	<path clip-path="url(#SVGID_2_)" fill="inherit" stroke="inherit" stroke-width="0.5" stroke-miterlimit="10" d="M297.89,198.677
		c-54.71,0-99.213,44.503-99.213,99.214s44.503,99.213,99.213,99.213c54.711,0,99.214-44.502,99.214-99.213
		S352.601,198.677,297.89,198.677z M297.89,375.057c-42.54,0-77.166-34.625-77.166-77.166s34.626-77.166,77.166-77.166
		s77.166,34.625,77.166,77.166S340.43,375.057,297.89,375.057z"/>
</g>
</svg>
