<?xml version="1.0" encoding="utf-8"?>
<!-- Generator: Adobe Illustrator 15.1.0, SVG Export Plug-In . SVG Version: 6.00 Build 0)  -->
<!DOCTYPE svg PUBLIC "-//W3C//DTD SVG 1.1//EN" "http://www.w3.org/Graphics/SVG/1.1/DTD/svg11.dtd">
<svg version="1.1" id="Layer_1" xmlns="http://www.w3.org/2000/svg" xmlns:xlink="http://www.w3.org/1999/xlink" x="0px" y="0px"
	 width="31.134px" height="25.532px" viewBox="0 0 31.134 25.532" enable-background="new 0 0 31.134 25.532" xml:space="preserve">
<g>
	<path fill="inherit" d="M0,5.131v15.262h7.213l11.98,5.139V0L7.234,5.131H0z M21.082,5.128c1.979,1.819,3.084,4.571,3.086,7.655
			c-0.002,3.057-1.004,5.149-2.754,7.606l0.66,0.658c1.926-2.1,3.123-5.027,3.123-8.264c0-3.262-1.215-6.201-3.162-8.305
			L21.082,5.128z M27.949,1.823l-1.475,0.954c1.963,2.748,2.83,6.219,2.836,10.006c-0.006,3.778-1.127,7.241-3.08,9.983l1.727,0.26
			c1.984-2.957,3.176-6.615,3.178-10.593C31.132,8.449,29.937,4.783,27.949,1.823z"/>
</g>
</svg>
